#!OML:ASF F:\VICON\USERDATA\INSTALL\rory3\rory3.ASF
:FULLY-SPECIFIED
:DEGREES
360
root -0.364161 15.9192 22.6764 0.214297 4.8236 1.45642
lowerback 12.4526 -0.590349 -6.193
upperback -4.94946 -1.60669 2.44511
thorax -12.2593 -0.139975 6.58693
lowerneck -8.60196 -5.98743 -4.70906
upperneck 19.3399 -8.47141 4.68585
head 7.77606 -3.97083 1.5137
rclavicle -8.94531e-015 1.59028e-014
rhumerus -37.3476 -9.18564 -78.0453
rradius 23.59
rwrist -0.252258
rhand -11.0517 20.1201
rfingers 7.12502
rthumb 14.9707 -9.31884
lclavicle -8.94531e-015 1.59028e-014
lhumerus -42.307 13.698 79.0419
lradius 15.5314
lwrist -10.9404
lhand -3.49208 19.2097
lfingers 7.12502
lthumb 22.2416 47.9499
rfemur -19.6626 14.0091 23.1524
rtibia 30.2317
rfoot -9.29454 -11.1953
rtoes 7.39752
lfemur -4.25085 0.977755 -21.0827
ltibia 58.1105
lfoot 26.8063 -2.91126
ltoes 13.0226
361
root -0.376869 15.9354 22.8022 0.183701 4.86716 1.2717
lowerback 12.5269 -0.531838 -6.07962
upperback -4.97978 -1.50929 2.47338
thorax -12.3559 -0.095739 6.53674
lowerneck -8.56889 -6.08003 -4.81887
upperneck 19.4783 -8.62385 4.84353
head 7.83609 -4.03578 1.56702
rclavicle 1.18774e-014 1.27222e-014
rhumerus -37.1738 -8.49216 -78.3798
rradius 24.8492
rwrist -0.511571
rhand -10.6707 19.4284
rfingers 7.12502
rthumb 15.3377 -9.98275
lclavicle 1.18774e-014 1.27222e-014
lhumerus -42.4814 13.1924 79.333
lradius 15.7606
lwrist -10.6798
lhand -3.41308 19.4607
lfingers 7.12502
lthumb 22.3175 48.1918
rfemur -18.8703 13.9635 23.5578
rtibia 29.8143
rfoot -9.57016 -11.0936
rtoes 7.54631
lfemur -6.05665 1.15569 -20.7013
ltibia 60.4393
lfoot 28.1601 -0.268026
ltoes 19.5915
362
root -0.386828 15.95 22.9277 0.262332 4.8853 1.35852
lowerback 12.4604 -0.413455 -6.20569
upperback -4.98845 -1.37739 2.39177
thorax -12.3475 -0.0276107 6.48587
lowerneck -8.70442 -6.28565 -4.72136
upperneck 19.6292 -8.93106 4.85071
head 7.92284 -4.1692 1.5158
rclavicle -7.05686e-015 -1.66979e-014
rhumerus -36.9516 -8.03902 -78.6001
rradius 25.9883
rwrist -0.669578
rhand -10.3258 18.7233
rfingers 7.12502
rthumb 15.6699 -10.6622
lclavicle -7.05686e-015 -1.66979e-014
lhumerus -42.5012 12.5907 79.6502
lradius 15.8405
lwrist -10.2573
lhand -3.38928 19.3106
lfingers 7.12502
lthumb 22.3403 48.039
rfemur -18.2342 13.9083 23.6446
rtibia 29.5088
rfoot -9.91523 -11.0146
rtoes 7.51643
lfemur -7.92434 1.39288 -20.7188
ltibia 62.5322
lfoot 29.1081 1.38261
ltoes 21.1594
363
root -0.394675 15.9562 23.0429 0.317477 4.83065 1.26163
lowerback 12.4834 -0.306417 -6.11749
upperback -4.9781 -1.21992 2.37776
thorax -12.3757 0.0401657 6.38516
lowerneck -8.86942 -6.47683 -4.75815
upperneck 19.7401 -9.20445 4.91311
head 8.0091 -4.29073 1.50645
rclavicle -1.21259e-014 2.0276e-014
rhumerus -36.559 -7.63784 -78.8479
rradius 26.7097
rwrist -1.15576
rhand -10.4605 17.7118
rfingers 7.12502
rthumb 15.5401 -11.6837
lclavicle -1.21259e-014 2.0276e-014
lhumerus -42.4661 12.4105 79.7766
lradius 15.894
lwrist -9.99106
lhand -3.56226 18.891
lfingers 7.12502
lthumb 22.1743 47.6392
rfemur -17.7139 13.9766 23.9293
rtibia 29.3423
rfoot -10.2131 -10.9659
rtoes 6.99021
lfemur -9.72721 1.69123 -20.5644
ltibia 64.462
lfoot 28.7742 2.8265
ltoes 21.7448
364
root -0.403012 15.9585 23.1589 0.29851 4.79821 1.16802
lowerback 12.6098 -0.221335 -6.0307
upperback -4.9499 -1.09897 2.35614
thorax -12.4398 0.0915855 6.2879
lowerneck -8.92117 -6.56165 -4.93199
upperneck 19.7493 -9.35366 5.20665
head 8.053 -4.34548 1.6125
rclavicle 1.2921e-015 -1.94809e-014
rhumerus -36.1731 -7.43436 -79.0395
rradius 27.5704
rwrist -1.288
rhand -10.2274 17.1387
rfingers 7.12502
rthumb 15.7646 -12.2393
lclavicle 1.2921e-015 -1.94809e-014
lhumerus -42.4306 12.1826 79.9737
lradius 16.1014
lwrist -9.51822
lhand -3.85201 18.7176
lfingers 7.12502
lthumb 21.8961 47.4986
rfemur -17.1681 13.8417 24.2382
rtibia 29.2495
rfoot -10.4799 -10.739
rtoes 6.98694
lfemur -11.308 2.02324 -20.4002
ltibia 66.1967
lfoot 27.1575 3.63035
ltoes 20.9444
365
root -0.411455 15.959 23.2772 0.277637 4.75401 1.26002
lowerback 12.7524 -0.101899 -6.11321
upperback -4.94424 -0.97144 2.26572
thorax -12.5411 0.158449 6.20993
lowerneck -8.67505 -6.55501 -5.01428
upperneck 19.5599 -9.38014 5.45833
head 7.96361 -4.34875 1.7153
rclavicle 1.31695e-014 1.43125e-014
rhumerus -35.8363 -7.11948 -79.2895
rradius 28.3932
rwrist -1.45557
rhand -10.1476 17.1797
rfingers 7.12502
rthumb 15.8415 -12.1922
lclavicle 1.31695e-014 1.43125e-014
lhumerus -42.4015 11.4674 80.4597
lradius 16.5025
lwrist -8.48967
lhand -3.89896 18.9237
lfingers 7.12502
lthumb 21.851 47.71
rfemur -16.6177 13.5778 24.3666
rtibia 29.1661
rfoot -10.5365 -10.6041
rtoes 5.75486
lfemur -12.8023 2.26131 -20.4979
ltibia 67.6941
lfoot 25.198 3.14826
ltoes 18.787
366
root -0.418559 15.9584 23.3937 0.186045 4.6689 1.1321
lowerback 12.8223 0.015097 -6.00792
upperback -4.86264 -0.800254 2.23784
thorax -12.516 0.22589 6.07886
lowerneck -8.63458 -6.60333 -5.00442
upperneck 19.4651 -9.4754 5.61069
head 7.93755 -4.38139 1.75549
rclavicle -1.11816e-014 1.39149e-014
rhumerus -35.3123 -6.82031 -79.5097
rradius 28.9657
rwrist -1.57853
rhand -10.1557 17.2647
rfingers 7.12502
rthumb 15.8337 -12.1078
lclavicle -1.11816e-014 1.39149e-014
lhumerus -42.4232 10.9672 80.7577
lradius 16.9652
lwrist -7.62741
lhand -4.01089 18.9409
lfingers 7.12502
lthumb 21.7435 47.7396
rfemur -15.9344 13.5952 24.7339
rtibia 29.0358
rfoot -10.9369 -10.5069
rtoes 5.44827
lfemur -14.2631 2.53973 -20.3362
ltibia 69.0283
lfoot 23.1205 2.13021
ltoes 18.8803
367
root -0.426632 15.9594 23.515 0.0703917 4.63403 1.13886
lowerback 12.8394 0.145087 -6.01986
upperback -4.73131 -0.63567 2.15031
thorax -12.4004 0.291239 5.94646
lowerneck -9.0707 -6.82482 -4.97924
upperneck 19.7362 -9.79845 5.65151
head 8.12691 -4.51427 1.71211
rclavicle 5.96354e-015 -1.70955e-014
rhumerus -34.851 -6.62469 -79.7574
rradius 29.6266
rwrist -1.93829
rhand -10.2348 17.5109
rfingers 7.12502
rthumb 15.7576 -11.8677
lclavicle 5.96354e-015 -1.70955e-014
lhumerus -42.3493 10.6208 80.8934
lradius 17.3134
lwrist -7.01358
lhand -3.88753 18.8725
lfingers 7.12502
lthumb 21.862 47.6575
rfemur -15.1278 13.6857 24.9794
rtibia 28.8652
rfoot -11.4553 -10.5262
rtoes 5.09319
lfemur -15.5864 2.85811 -20.3434
ltibia 70.1716
lfoot 20.5451 -0.000204421
ltoes 15.6755
368
root -0.43547 15.9612 23.638 -0.106622 4.57951 1.18839
lowerback 12.9266 0.226516 -6.09459
upperback -4.63779 -0.553689 2.05614
thorax -12.3585 0.326655 5.86492
lowerneck -9.26797 -6.95427 -5.00113
upperneck 19.9667 -10.0053 5.7489
head 8.25873 -4.59599 1.71546
rclavicle 1.51573e-014 1.59028e-015
rhumerus -34.6264 -5.89788 -80.2752
rradius 30.5748
rwrist -3.09274
rhand -10.5252 17.8654
rfingers 7.12502
rthumb 15.4778 -11.535
lclavicle 1.51573e-014 1.59028e-015
lhumerus -42.3403 10.4893 80.9015
lradius 17.7013
lwrist -6.56702
lhand -3.40279 19.2626
lfingers 7.12502
lthumb 22.3274 47.9926
rfemur -14.2273 13.8616 25.1985
rtibia 28.5826
rfoot -11.8896 -10.6902
rtoes 5.12939
lfemur -16.7604 3.1536 -20.4176
ltibia 71.1205
lfoot 17.4643 -2.09894
ltoes 11.9321
369
root -0.438523 15.9659 23.7574 -0.228258 4.60693 1.21284
lowerback 12.9948 0.244141 -6.05553
upperback -4.57254 -0.537056 1.95825
thorax -12.3269 0.32314 5.72912
lowerneck -9.01177 -6.98356 -5.08326
upperneck 19.7852 -10.0776 5.9766
head 8.17251 -4.62429 1.80607
rclavicle 1.00138e-014 1.63003e-014
rhumerus -34.4123 -5.21386 -80.7576
rradius 31.4452
rwrist -4.10637
rhand -10.9848 17.937
rfingers 7.12502
rthumb 15.0352 -11.4971
lclavicle 1.00138e-014 1.63003e-014
lhumerus -42.3153 10.0305 81.1476
lradius 18.1297
lwrist -5.58336
lhand -3.27506 19.3896
lfingers 7.12502
lthumb 22.45 48.1048
rfemur -13.3877 13.834 25.3876
rtibia 28.2384
rfoot -12.3544 -10.6146
rtoes 5.92599
lfemur -17.9794 3.36368 -20.5294
ltibia 71.9271
lfoot 14.2123 -3.82183
ltoes 7.91992
